<?xml version="1.0"?>
<svg xmlns="http://www.w3.org/2000/svg" xmlns:xlink="http://www.w3.org/1999/xlink" xmlns:svgjs="http://svgjs.com/svgjs" version="1.1" width="512" height="512" x="0" y="0" viewBox="0 0 496 496" style="enable-background:new 0 0 512 512" xml:space="preserve" class=""><g><path xmlns="http://www.w3.org/2000/svg" d="m464 144c17.648438 0 32-14.351562 32-32v-16c0-17.648438-14.351562-32-32-32h-64v-16c8.824219 0 16-7.175781 16-16v-16c0-8.824219-7.175781-16-16-16h-384c-8.824219 0-16 7.175781-16 16v16c0 8.824219 7.175781 16 16 16v164.550781l-16-15.109375v298.558594h316.121094l-220.234375-208h224.113281v136c0 13.230469 10.769531 24 24 24h128c13.230469 0 24-10.769531 24-24v-208c0-13.230469-10.769531-24-24-24h-72v-48zm-32-48h-176v-16h176zm-192 25.054688-25.574219-17.054688 25.574219-17.054688zm16-9.054688h176v16h-176zm224-16v16c0 8.824219-7.175781 16-16 16h-16v-48h16c8.824219 0 16 7.175781 16 16zm-464-80h384l.007812 16h-384.007812zm0 464v-16h16v-16h-16v-16h16v-16h-16v-16h16v-16h-16v-16h16v-16h-16v-16h16v-16h-16v-16h16v-16h-16v-53.441406l259.878906 245.441406zm464-264v208c0 4.414062-3.59375 8-8 8h-128c-4.40625 0-8-3.585938-8-8v-208c0-4.414062 3.59375-8 8-8h128c4.40625 0 8 3.585938 8 8zm-96-24h-136v16h73.472656c-.898437 2.511719-1.472656 5.183594-1.472656 8v8h-72v16h72v32h-241.054688l-46.945312-44.335938v-179.664062h352v16h-138.425781l-60 40 60 40h138.425781zm0 0" fill="#86d302" data-original="#000000" style="" class=""/><path xmlns="http://www.w3.org/2000/svg" d="m168 96h-55l-14.457031 108.375-22.703125-28.375h-27.839844v16h20.160156l41.296875 51.625 17.542969-131.625h41zm0 0" fill="#86d302" data-original="#000000" style="" class=""/><path xmlns="http://www.w3.org/2000/svg" d="m218.34375 138.34375-34.34375 34.34375-34.34375-34.34375-11.3125 11.3125 34.34375 34.34375-34.34375 34.34375 11.3125 11.3125 34.34375-34.34375 34.34375 34.34375 11.3125-11.3125-34.34375-34.34375 34.34375-34.34375zm0 0" fill="#86d302" data-original="#000000" style="" class=""/><path xmlns="http://www.w3.org/2000/svg" d="m248 160h120v16h-120zm0 0" fill="#86d302" data-original="#000000" style="" class=""/><path xmlns="http://www.w3.org/2000/svg" d="m48 308.800781v139.199219h147.382812zm16 37.121094 91.144531 86.078125h-91.144531zm0 0" fill="#86d302" data-original="#000000" style="" class=""/><path xmlns="http://www.w3.org/2000/svg" d="m464 224h-112v64h112zm-16 48h-80v-32h80zm0 0" fill="#86d302" data-original="#000000" style="" class=""/><path xmlns="http://www.w3.org/2000/svg" d="m416 320h48v16h-48zm0 0" fill="#86d302" data-original="#000000" style="" class=""/><path xmlns="http://www.w3.org/2000/svg" d="m352 368h48v16h-48zm0 0" fill="#86d302" data-original="#000000" style="" class=""/><path xmlns="http://www.w3.org/2000/svg" d="m352 400h48v16h-48zm0 0" fill="#86d302" data-original="#000000" style="" class=""/><path xmlns="http://www.w3.org/2000/svg" d="m368 352h16v-16h16v-16h-16v-16h-16v16h-16v16h16zm0 0" fill="#86d302" data-original="#000000" style="" class=""/><path xmlns="http://www.w3.org/2000/svg" d="m450.34375 370.34375-10.34375 10.34375-10.34375-10.34375-11.3125 11.3125 10.34375 10.34375-10.34375 10.34375 11.3125 11.3125 10.34375-10.34375 10.34375 10.34375 11.3125-11.3125-10.34375-10.34375 10.34375-10.34375zm0 0" fill="#86d302" data-original="#000000" style="" class=""/></g></svg>
