<?xml version="1.0"?>
<svg xmlns="http://www.w3.org/2000/svg" xmlns:xlink="http://www.w3.org/1999/xlink" xmlns:svgjs="http://svgjs.com/svgjs" version="1.1" width="512" height="512" x="0" y="0" viewBox="0 0 512 512" style="enable-background:new 0 0 512 512" xml:space="preserve" class=""><g><title xmlns="http://www.w3.org/2000/svg">distributed-logistic-delivery-product-packaging</title><path xmlns="http://www.w3.org/2000/svg" d="M488,320.00012H400a7.99977,7.99977,0,0,0-8,8v10.7251l-8,3.42859V232.00012a7.99977,7.99977,0,0,0-8-8H136a7.99977,7.99977,0,0,0-8,8v96.5625a91.43769,91.43769,0,0,0-9.94678-.5625H104v-8a7.99977,7.99977,0,0,0-8-8H24a7.99977,7.99977,0,0,0-8,8v96a7.99977,7.99977,0,0,0,8,8H96a7.99977,7.99977,0,0,0,8-8v-8h5.38232a128.84653,128.84653,0,0,0,74.61768,24h33.37628a23.99108,23.99108,0,0,0,22.62323,32h80.9043a95.773,95.773,0,0,0,73.51581-34.27356A7.96956,7.96956,0,0,0,400,432.00012h88a7.99977,7.99977,0,0,0,8-8v-96A7.99977,7.99977,0,0,0,488,320.00012Zm-400,88H32v-80H88Zm280-58.92944a183.2584,183.2584,0,0,0-51.27295,34.9353l-28.72314-.00586H288v-144h80ZM184,240.00012h48v28.686l-2.34326-2.34278a8,8,0,0,0-11.31348,0L208,276.68616l-10.34326-10.34278a8,8,0,0,0-11.31348,0L184,268.68616Zm-40,0h24v48a7.99981,7.99981,0,0,0,13.65674,5.65674L192,283.31409l10.34326,10.34277a8,8,0,0,0,11.31348,0L224,283.31409l10.34326,10.34277A7.99981,7.99981,0,0,0,248,288.00012v-48h24V390.1145l-.00983.00842a23.90228,23.90228,0,0,0-15.99115-6.12231l-25.37573.001A23.9966,23.9966,0,0,0,208,352.00012h-.00391l-28.76855.00586A89.3116,89.3116,0,0,0,144,331.79773Zm-27.2002,153.6001A7.99954,7.99954,0,0,0,112,392.00012h-8v-48h14.05322a73.46,73.46,0,0,1,52.291,21.6626,7.9995,7.9995,0,0,0,5.65722,2.34375h.00147l31.99609-.00635a8,8,0,0,1,.00342,16H168v16h32.00293v.00244l55.99658-.002a7.99976,7.99976,0,1,1,.001,15.99951H184A112.7024,112.7024,0,0,1,116.7998,393.60022Zm270.668,18.77588a79.8397,79.8397,0,0,1-66.564,35.624h-80.9043A7.99976,7.99976,0,1,1,240,432.00061l55.99707.002v-.00244H328v-16H287.999a8,8,0,0,1,.00049-16h.00147l31.99609.00635h.00147a7.9995,7.9995,0,0,0,5.65722-2.34375,167.48641,167.48641,0,0,1,52.69776-35.68164l4.62213-1.981H384v-.439l8-3.42871v49.44531ZM480,416.00012H408v-80h72Z" fill="#5cb100" data-original="#000000" style="" class=""/><path xmlns="http://www.w3.org/2000/svg" d="M136,104.00012H104a7.99977,7.99977,0,0,0-8,8v32h16V131.3136l42.34326,42.34326,11.31348-11.31348-42.34326-42.34326H136Z" fill="#5cb100" data-original="#000000" style="" class=""/><path xmlns="http://www.w3.org/2000/svg" d="M42.34326,261.65686l11.31348-11.31348L43.31348,240.00012H96v-16H43.31348l10.34326-10.34326L42.34326,202.34338l-24,24a7.99915,7.99915,0,0,0,0,11.31348Z" fill="#5cb100" data-original="#000000" style="" class=""/><path xmlns="http://www.w3.org/2000/svg" d="M264,152.00012V75.3136l10.34326,10.34326,11.31348-11.31348-24-24a7.99915,7.99915,0,0,0-11.31348,0l-24,23.99952,11.31348,11.31347L248,75.31342v76.6867Z" fill="#5cb100" data-original="#000000" style="" class=""/><path xmlns="http://www.w3.org/2000/svg" d="M416,144.00012v-32a7.99977,7.99977,0,0,0-8-8H376v16h12.68652l-42.34326,42.34326,11.31348,11.31348L400,131.3136v12.68652Z" fill="#5cb100" data-original="#000000" style="" class=""/><path xmlns="http://www.w3.org/2000/svg" d="M469.65674,202.34338l-11.31348,11.31348,10.34326,10.34326H416v16h52.68652l-10.34326,10.34326,11.31348,11.31348,24-24a7.99915,7.99915,0,0,0,0-11.31348Z" fill="#5cb100" data-original="#000000" style="" class=""/></g></svg>
