<?xml version="1.0"?>
<svg xmlns="http://www.w3.org/2000/svg" xmlns:xlink="http://www.w3.org/1999/xlink" xmlns:svgjs="http://svgjs.com/svgjs" version="1.1" width="512" height="512" x="0" y="0" viewBox="0 0 60 60" style="enable-background:new 0 0 512 512" xml:space="preserve" class=""><g><g xmlns="http://www.w3.org/2000/svg" id="Page-1" fill="none" fill-rule="evenodd"><g id="063---Phone-Medical-Advice" fill="rgb(0,0,0)" fill-rule="nonzero" transform="translate(-1)"><path id="Shape" d="m21.065 22.929c1.5635475-1.564287 1.5635475-4.099713 0-5.664l-7.092-7.082c-.7487982-.75616452-1.7688179-1.18159807-2.833-1.18159807s-2.08420176.42543355-2.833 1.18159807l-6.375 6.371c-.08288304.08214-.15059169.1782863-.2.284-.215.46-5.05 11.475 12.956 29.472 11.55 11.555 20.223 13.7 25.077 13.7 1.5023018.0542722 2.9997847-.1999595 4.4-.747.1058856-.0491114.2020817-.1168551.284-.2l6.37-6.363c.755111-.7491576 1.1798321-1.7688131 1.1798321-2.8325s-.4247211-2.0833424-1.1798321-2.8325l-7.087-7.095c-1.5651988-1.5613439-4.0988012-1.5613439-5.664 0l-4.651 4.66c-.3118356.3131336-.7898458.3898413-1.184.19-3.3593179-1.842628-6.4109372-4.1975537-9.045-6.98-2.7812328-2.6325258-5.1351514-5.6824649-6.977-9.04-.1964834-.3921738-.1230375-.8657595.183-1.18zm-6.641 6.738c1.9364145 3.5496033 4.4164206 6.7742861 7.35 9.557 2.7839149 2.9347461 6.0099414 5.4157598 9.561 7.353 1.1632673.579626 2.5663701.3553546 3.491-.558l4.659-4.67c.7831725-.7821177 2.0518275-.7821177 2.835 0l7.089 7.1c.3782773.3736841.5911817.8832731.5911817 1.415s-.2129044 1.0413159-.5911817 1.415l-6.229 6.227c-1.3.455-11.263 3.21-27.076-12.61-15.839-15.831-13.059-25.803-12.611-27.075l6.23-6.23c.789098-.7657518 2.043902-.7657518 2.833 0l7.1 7.085c.7814521.7830574.7814521 2.0509426 0 2.834l-4.676 4.667c-.9139442.924049-1.1375629 2.3276983-.556 3.49z" fill="#5cb100" data-original="#000000" style=""/><path id="Shape" d="m9.962 32.646c-.22212611.1449347-.37757601.3721759-.43214967.631729s-.00380027.5301548.14114967.752271c2.2874578 3.4092247 4.917829 6.5753874 7.85 9.449 2.8729904 2.9325511 6.0392293 5.5626506 9.449 7.849.2990505.2073073.6871064.2358099 1.0132375.074422.326131-.161388.5388566-.487191.5554394-.8506914s-.1655949-.7073188-.4756769-.8977306c-3.2938264-2.2113352-6.3524583-4.7542753-9.128-7.589-2.834575-2.7756797-5.3775018-5.8342956-7.589-9.128-.1449347-.2221261-.3721759-.377576-.631729-.4321497-.2595531-.0545736-.5301548-.0038002-.752271.1411497z" fill="#5cb100" data-original="#000000" style=""/><path id="Shape" d="m57 0h-24c-2.209139 0-4 1.790861-4 4v18c0 2.209139 1.790861 4 4 4h4.45l5.709 8.988c.4000699.6304341 1.0948387 1.0123945 1.8415 1.0123945s1.4414301-.3819604 1.8415-1.0123945l5.708-8.988h4.45c2.209139 0 4-1.790861 4-4v-18c0-2.209139-1.790861-4-4-4zm2 22c0 1.1045695-.8954305 2-2 2h-10c-.5522847 0-1 .4477153-1 1s.4477153 1 1 1h3.18l-5.026 7.916c-.0337464.0519914-.0915167.0833669-.1535.0833669s-.1197536-.0313755-.1535-.0833669l-5.027-7.916h3.18c.5522847 0 1-.4477153 1-1s-.4477153-1-1-1h-10c-1.1045695 0-2-.8954305-2-2v-18c0-1.1045695.8954305-2 2-2h24c1.1045695 0 2 .8954305 2 2z" fill="#5cb100" data-original="#000000" style=""/><path id="Shape" d="m51 9h-2v-2c0-1.1045695-.8954305-2-2-2h-4c-1.1045695 0-2 .8954305-2 2v2h-2c-1.1045695 0-2 .8954305-2 2v4c0 1.1045695.8954305 2 2 2h2v2c0 1.1045695.8954305 2 2 2h4c1.1045695 0 2-.8954305 2-2v-2h2c1.1045695 0 2-.8954305 2-2v-4c0-1.1045695-.8954305-2-2-2zm0 6h-2c-1.1045695 0-2 .8954305-2 2v2h-4v-2c0-1.1045695-.8954305-2-2-2h-2v-4h2c1.1045695 0 2-.8954305 2-2v-2h4v2c0 1.1045695.8954305 2 2 2h2z" fill="#5cb100" data-original="#000000" style=""/></g></g></g></svg>
