<?xml version="1.0"?>
<svg xmlns="http://www.w3.org/2000/svg" xmlns:xlink="http://www.w3.org/1999/xlink" xmlns:svgjs="http://svgjs.com/svgjs" version="1.1" width="512" height="512" x="0" y="0" viewBox="0 0 64 64" style="enable-background:new 0 0 512 512" xml:space="preserve" class=""><g><g xmlns="http://www.w3.org/2000/svg"><path d="m59.849 42.136c-.936-.701-2.035-1.193-3.183-1.423l-2.85-.57-.319-1.278c1.113-.802 1.938-1.975 2.298-3.337l.508-.484c1.025-.976 1.804-2.202 2.251-3.544.296-.886.446-1.811.446-2.748 0-1.992-.761-3.804-2-5.179v-.573c0-2.574-1.632-4.768-3.914-5.618.715-.667 1.266-1.505 1.589-2.45 2.436-.334 4.325-2.406 4.325-4.932 0-2.757-2.243-5-5-5-1.634 0-3.125.784-4.056 2.082-.308-.049-.622-.082-.944-.082-3.309 0-6 2.691-6 6 0 1.729.739 3.284 1.912 4.38-1.336.494-2.443 1.45-3.135 2.687-.517-.727-1.115-1.391-1.777-1.986v-1.081c0-2.574-1.632-4.768-3.914-5.618 1.174-1.096 1.914-2.653 1.914-4.382 0-3.309-2.691-6-6-6s-6 2.691-6 6c0 1.729.74 3.286 1.914 4.382-2.282.85-3.914 3.044-3.914 5.618v1.081c-.662.595-1.26 1.258-1.777 1.985-.693-1.236-1.799-2.193-3.136-2.687 1.174-1.095 1.913-2.65 1.913-4.379 0-3.309-2.691-6-6-6s-6 2.691-6 6c0 1.729.74 3.285 1.914 4.381-1.668.623-2.995 1.976-3.58 3.699-1.334.305-2.334 1.495-2.334 2.92v4.752c0 .937.15 1.862.446 2.747.447 1.343 1.226 2.569 2.25 3.544l.509.485c.36 1.362 1.185 2.534 2.298 3.337l-.319 1.278-2.85.57c-1.147.229-2.247.722-3.182 1.423-1.973 1.48-3.152 3.837-3.152 6.303v14.561h62v-14.561c0-2.466-1.179-4.823-3.151-6.303zm-40.054-6.607.205-.196v5.02c-.09.058-.183.112-.271.173l-1.913-.382-.319-1.278c1.113-.803 1.938-1.975 2.298-3.337zm-2.585 6.533.63.126c-.331.365-.637.75-.915 1.157l-.936-.468zm-3.489 3.938-.498-1.493.777-.389 1.951.975c-.131.296-.249.598-.354.906h-1.876zm-2.305-.59.504 1.513-.286.572-.931-1.729zm2.202 2.59h1.503c-.073.517-.121 1.042-.121 1.579v.454l-1 1.857-1.206-2.241zm1.382 6.252.207-.384c.324.667 1.003 1.132 1.793 1.132v6h-2zm4 .748h2.427c.126.468.269.932.451 1.387l1.122 2.805v1.808h-4zm4.735.644c-.488-1.218-.735-2.501-.735-3.815 0-1.106.178-2.199.526-3.248l.422-1.265-1.896-.633-.423 1.265c-.417 1.255-.629 2.56-.629 3.881 0 .393.019.783.056 1.171h-4.056v-3.421c0-4.474 3.21-8.215 7.632-8.896l.128-.02 6.24 11.589v8.748h-6v-2.192zm8.265-32.01c1.393 1.567 3.247 2.636 5.339 3.054l.661.132v3.389c0 3.193-2.598 5.791-5.79 5.791h-.176c-3.327 0-6.034-2.692-6.034-6.002v-3.178l.661-.132c2.092-.418 3.946-1.487 5.339-3.054zm-2.209 14.043c.713.206 1.464.323 2.243.323h.176c.697 0 1.369-.101 2.013-.273.443 1.3 1.533 2.292 2.93 2.594l-1.981 3.679h-6.344l-1.981-3.679c1.415-.306 2.513-1.32 2.944-2.644zm2.209 12.214-2.095-3.891h4.19zm1 2.362 6.241-11.589.128.02c4.421.68 7.631 4.421 7.631 8.895v3.421h-4.055c.036-.388.055-.778.055-1.171 0-1.321-.212-2.626-.63-3.881l-.422-1.265-1.896.633.421 1.264c.349 1.05.527 2.143.527 3.249 0 1.313-.247 2.597-.735 3.815l-1.265 3.164v2.192h-6zm11-16.92.205.195c.36 1.362 1.185 2.534 2.298 3.337l-.319 1.278-1.913.382c-.088-.061-.181-.115-.271-.173zm6.279 10.667h-1.876c-.105-.309-.223-.611-.354-.906l1.951-.976.777.389zm-3.204-2.656c-.279-.407-.585-.792-.915-1.157l.63-.126 1.222.814zm-6.075 15.848 1.122-2.805c.182-.454.326-.919.451-1.387h2.427v6h-4zm6-4.192c.79 0 1.469-.465 1.793-1.132l.207.384v6.748h-2zm3-3.11-1-1.857v-.454c0-.537-.048-1.062-.122-1.579h1.503l.825 1.65zm2.366-4.394-.286-.572.504-1.513.713.357zm2.724-5.058-.844 1.567-2.257-1.129 1.222-.814zm-3.231-1.879-1.859 1.239-1.859-1.24.199-.797c.528.153 1.084.239 1.66.239s1.132-.086 1.66-.239zm2.141-6.559c0 2.206-1.794 4-4 4s-4-1.794-4-4v-1.877c0-1.379.935-2.576 2.273-2.91l.082-.021c.657.642 1.514 1.085 2.473 1.222l2.313.331c.49.069.859.495.859.989zm2.657-3.132c-.163.488-.387.955-.657 1.392v-.526c0-1.483-1.107-2.76-2.575-2.969l-2.313-.331c-1.205-.172-2.112-1.218-2.112-2.434h-2c0 .501.085.987.242 1.442-1.934.724-3.242 2.575-3.242 4.681v-5.123c0-.455-.031-.903-.081-1.346 1.055-1.64 2.874-2.654 4.833-2.654h2.496c3.172 0 5.752 2.581 5.752 5.752 0 .722-.115 1.433-.343 2.116zm-5.657-11.868c0 1.103-.897 2-2 2s-2-.897-2-2zm3.82 2.879c-.747-.39-1.564-.656-2.428-.785.29-.468.478-.998.554-1.567.9.507 1.577 1.343 1.874 2.352zm-5.82-4.879c-2.206 0-4-1.794-4-4h8c0 2.206-1.794 4-4 4zm5-10c1.654 0 3 1.346 3 3 0 1.293-.827 2.387-2.01 2.807-.069-2.145-1.265-4.007-3.018-5.012.544-.501 1.258-.795 2.028-.795zm-5 2c1.474 0 2.75.81 3.444 2h-6.887c.693-1.19 1.969-2 3.443-2zm-3.948 10.516c.1.766.414 1.459.885 2.026-.954.374-1.828.931-2.569 1.645-.094-.28-.19-.558-.304-.828.201-1.237.949-2.263 1.988-2.843zm-7.093-2.917c-.873-.502-1.815-.894-2.808-1.165.421-.544.7-1.193.795-1.907 1.107.624 1.879 1.749 2.013 3.072zm-7.959-3.599h4c0 1.103-.897 2-2 2s-2-.897-2-2zm2-2c-2.206 0-4-1.794-4-4h8c0 2.206-1.794 4-4 4zm0-8c1.474 0 2.75.81 3.444 2h-6.887c.693-1.19 1.969-2 3.443-2zm-3.947 10.527c.095.714.374 1.363.795 1.907-.993.271-1.935.663-2.808 1.165.135-1.323.906-2.448 2.013-3.072zm3.947 3.473c5.514 0 10 4.486 10 10v12.337c-.738-.285-1.513-.505-2.327-.63l-1.977-.304c-.798-.123-1.412-.698-1.617-1.442 2.339-1.346 3.92-3.866 3.92-6.752v-5.029l-2.269-.454c-1.926-.385-3.591-1.469-4.731-3.054v-2.672h-2v2.672c-1.141 1.585-2.806 2.669-4.731 3.054l-2.268.454v4.818c0 2.924 1.588 5.479 3.945 6.875-.178.787-.811 1.402-1.641 1.53l-1.977.304c-.814.125-1.589.345-2.327.63v-12.337c0-5.514 4.486-10 10-10zm-11.065 5.359c-.071.168-.125.343-.189.514-.733-.676-1.601-1.185-2.545-1.5.397-.534.656-1.167.746-1.858 1.04.58 1.789 1.607 1.988 2.844zm-7.935-3.359h4c0 1.103-.897 2-2 2s-2-.897-2-2zm2-2c-2.206 0-4-1.794-4-4h8c0 2.206-1.794 4-4 4zm0-8c1.474 0 2.75.81 3.444 2h-6.887c.693-1.19 1.969-2 3.443-2zm-3.948 10.512c.07.538.243 1.039.505 1.488h-2.014c.363-.624.884-1.139 1.509-1.488zm-3.709 11.355c-.228-.682-.343-1.393-.343-2.115v-4.752c0-.551.448-1 1-1h8c1.666 0 3.221.849 4.146 2.224-.086.581-.146 1.171-.146 1.776v5.123c0-2.106-1.308-3.958-3.242-4.681.157-.455.242-.941.242-1.442h-2c0 1.216-.907 2.262-2.111 2.435l-2.313.331c-1.469.209-2.576 1.485-2.576 2.968v.526c-.27-.438-.494-.904-.657-1.393zm2.657.867c0-.494.369-.92.858-.99l2.313-.331c.959-.137 1.815-.581 2.473-1.222l.083.021c1.338.335 2.273 1.532 2.273 2.911v1.877c0 2.206-1.794 4-4 4s-4-1.794-4-4zm4 8.266c.576 0 1.132-.086 1.66-.239l.199.797-1.859 1.24-1.859-1.24.199-.797c.528.153 1.084.239 1.66.239zm-3.21 2.062 1.222.814-2.257 1.129-.845-1.567zm-7.79 6.377c0-1.841.879-3.599 2.353-4.704.467-.35.991-.623 1.542-.821l6.105 11.339v6.747h-6v-11h-2v11h-2zm58 12.561h-2v-11h-2v11h-6v-6.747l6.105-11.338c.551.198 1.076.471 1.543.821 1.473 1.104 2.352 2.863 2.352 4.703z" fill="#86d302" data-original="#000000" style=""/><path d="m32 34c1.615 0 3.067-.897 3.789-2.342l.105-.211-1.789-.895-.105.212c-.381.762-1.147 1.236-2 1.236s-1.619-.474-2-1.236l-.105-.211-1.789.895.105.21c.722 1.445 2.174 2.342 3.789 2.342z" fill="#86d302" data-original="#000000" style=""/></g></g></svg>
