<?xml version="1.0"?>
<svg xmlns="http://www.w3.org/2000/svg" xmlns:xlink="http://www.w3.org/1999/xlink" xmlns:svgjs="http://svgjs.com/svgjs" version="1.1" width="512" height="512" x="0" y="0" viewBox="0 0 512 512" style="enable-background:new 0 0 512 512" xml:space="preserve" class=""><g><title xmlns="http://www.w3.org/2000/svg">Global target </title><path xmlns="http://www.w3.org/2000/svg" d="M418.441,335.1a7,7,0,1,0-12.265,6.75A69.573,69.573,0,1,1,379.7,314.917a7,7,0,1,0,6.959-12.148,83.556,83.556,0,1,0,31.787,32.33Z" fill="#5cb100" data-original="#000000" style="" class=""/><path xmlns="http://www.w3.org/2000/svg" d="M345.156,345.016A30.342,30.342,0,1,0,375.5,375.357a7,7,0,0,0-14,0,16.342,16.342,0,1,1-16.342-16.341,7,7,0,0,0,0-14Z" fill="#5cb100" data-original="#000000" style="" class=""/><path xmlns="http://www.w3.org/2000/svg" d="M496.689,259.213l-32.2-3.186-3.185-32.2a7,7,0,0,0-11.916-4.26L403.554,265.4a7,7,0,0,0-2.045,4.947q-5.115-2.819-10.454-5.114A194.823,194.823,0,0,0,398,213.562c0-107.249-87.252-194.5-194.5-194.5S9,106.313,9,213.562s87.252,194.5,194.5,194.5a196.839,196.839,0,0,0,26.8-1.845,118.59,118.59,0,1,0,219.1-87.253,7.082,7.082,0,0,0,.768.047,7,7,0,0,0,4.95-2.051l45.831-45.832a7,7,0,0,0-4.261-11.915Zm-47.864-19.289,1.968,19.9-30.164,30.164-4.373-17.492Zm-104.3,15.852A118.312,118.312,0,0,0,313.7,259.85a276.825,276.825,0,0,0,3.72-39.288h66.447a180.375,180.375,0,0,1-6.027,39.929A118.852,118.852,0,0,0,344.529,255.776ZM64.592,328.693A179.665,179.665,0,0,1,23.148,220.562H89.58c.655,28.008,5.241,54.251,13.358,77.983A191,191,0,0,0,64.592,328.693Zm38.346-200.115c-8.117,23.731-12.7,49.975-13.358,77.984H23.148A179.663,179.663,0,0,1,64.592,98.43,191,191,0,0,0,102.938,128.578Zm239.037-30.66a179.661,179.661,0,0,1,41.877,108.644H317.42c-.659-28.17-5.293-54.555-13.5-78.394A191.759,191.759,0,0,0,341.975,97.918ZM303.412,206.562H210.5V156.027a193.712,193.712,0,0,0,80.953-20.918A246.292,246.292,0,0,1,303.412,206.562ZM210.5,142.017V35.042c34.287,18.06,60.379,48.374,76.078,86.847A179.726,179.726,0,0,1,210.5,142.017Zm-14,0a182.133,182.133,0,0,1-76.2-19.814c15.685-38.623,41.824-69.055,76.2-87.164Zm0,14.01v50.532H103.588a246.452,246.452,0,0,1,11.856-71.131A196.174,196.174,0,0,0,196.5,156.03Zm-92.912,64.532H196.5v50.531a196.184,196.184,0,0,0-81.056,20.6A246.438,246.438,0,0,1,103.588,220.562ZM196.5,285.1V392.081c-34.38-18.109-60.519-48.541-76.2-87.164A182.129,182.129,0,0,1,196.5,285.1Zm29.737,97.455a154.457,154.457,0,0,1-15.737,9.523V285.1a179.526,179.526,0,0,1,47.546,8.222,118.142,118.142,0,0,0-32.1,81.038C225.948,377.115,226.051,379.848,226.237,382.558Zm43.425-100.087A193.152,193.152,0,0,0,210.5,271.09V220.562h92.919a259.3,259.3,0,0,1-4.921,44.514A118.727,118.727,0,0,0,269.662,282.471Zm62.9-194.956a177.793,177.793,0,0,1-33.7,27.347C285.454,82.773,265.165,55.991,239.149,36.6A180.362,180.362,0,0,1,332.563,87.515ZM167.851,36.6C141.727,56.072,121.38,83,107.975,115.263A176.9,176.9,0,0,1,73.962,88,180.383,180.383,0,0,1,167.851,36.6ZM73.962,339.123a176.867,176.867,0,0,1,34.013-27.263c13.405,32.266,33.752,59.192,59.876,78.659A180.383,180.383,0,0,1,73.962,339.123ZM344.529,478.938a104.581,104.581,0,0,1,0-209.162,103.568,103.568,0,0,1,61.646,20.117l2.909,11.637-68.878,68.877a7,7,0,0,0,9.9,9.9l68.879-68.878,11.081,2.77a104.569,104.569,0,0,1-85.536,164.738ZM448.021,304.259l-17.492-4.374,30.165-30.164,19.9,1.967Z" fill="#5cb100" data-original="#000000" style="" class=""/></g></svg>
