<?xml version="1.0"?>
<svg xmlns="http://www.w3.org/2000/svg" xmlns:xlink="http://www.w3.org/1999/xlink" xmlns:svgjs="http://svgjs.com/svgjs" version="1.1" width="512" height="512" x="0" y="0" viewBox="0 0 512 512" style="enable-background:new 0 0 512 512" xml:space="preserve" class=""><g><g xmlns="http://www.w3.org/2000/svg" id="_22-mobile" data-name="22-mobile"><g id="linear_color" data-name="linear color"><path d="M290.043,446.021H239.087a10,10,0,1,0,0,20h50.956a10,10,0,0,0,0-20Z" fill="#5cb100" data-original="#000000" style="" class=""/><path d="M464,166c-20.163,0-37.592,5.643-50.4,16.317-1.181.985-2.387,2.076-3.6,3.267V32A26.076,26.076,0,0,0,384,6H144a26.076,26.076,0,0,0-26,26V58.6l-1.239-1.239a42,42,0,0,0-59.4,59.4l43.274,43.274a42.017,42.017,0,0,0-17.959,70.035l24.616,24.616a41.993,41.993,0,0,0-24.616,71.384L99.29,342.687a41.993,41.993,0,0,0-24.616,71.384L118,457.4V480a26.029,26.029,0,0,0,26,26H336a10,10,0,0,0,10-10V400a54.26,54.26,0,0,1,21.6-43.2L406,328a10.105,10.105,0,0,0,4-8V240c0-39.827,24.31-50.935,44-53.4V496a10,10,0,0,0,20,0V176A10,10,0,0,0,464,166ZM144,26H384a6.006,6.006,0,0,1,6,6V61.956H138V32A6.006,6.006,0,0,1,144,26ZM65.055,87.06c-.2-19.372,24.011-29.385,37.564-15.559L118,86.883v62.235l-46.5-46.5A21.857,21.857,0,0,1,65.055,87.06Zm31.761,97.756c8.19-8.535,22.924-8.535,31.113,0l45.255,45.255c19.873,21.343-9.852,50.993-31.113,31.113L96.816,215.929A22.027,22.027,0,0,1,96.816,184.816Zm90.51,31.113-10.869-10.87A86.034,86.034,0,1,1,194,266.629,42.072,42.072,0,0,0,187.326,215.929Zm-90.51,64.887c8.19-8.535,22.924-8.535,31.113,0l45.255,45.255c19.873,21.343-9.852,50.993-31.113,31.113L96.816,311.929A22.027,22.027,0,0,1,96.816,280.816Zm-8,88c8.19-8.535,22.924-8.535,31.113,0l45.255,45.255c19.873,21.343-9.852,50.993-31.113,31.113L88.816,399.929A22.027,22.027,0,0,1,88.816,368.816ZM138,480V470a42.155,42.155,0,0,0,11.627,1.633,41.961,41.961,0,0,0,41.82-45.588H326V486H144A6.006,6.006,0,0,1,138,480ZM355.6,340.8A74.353,74.353,0,0,0,326,400v6.04H184.371a41.973,41.973,0,0,0-5.045-6.111L162.71,383.313a41.993,41.993,0,0,0,24.616-71.384L162.71,287.313a41.541,41.541,0,0,0,17.3-6.143,105.966,105.966,0,1,0-20.767-93.326S139.418,168.2,138,167.1V81.956H390V315Z" fill="#5cb100" data-original="#000000" style="" class=""/><path d="M253,224h17a14.509,14.509,0,0,1,0,29H244.791c-3.493.08-6-3.312-5.488-6.647a10,10,0,0,0-20-.358l-.019,1.036A25.509,25.509,0,0,0,244.791,273H252v6a10,10,0,0,0,20,0v-6.063A34.516,34.516,0,0,0,270,204H253a14,14,0,0,1,0-28h24.811q5.283.441,5.5,5.744a10,10,0,0,0,19.982.86A25.508,25.508,0,0,0,277.811,156H272v-6a10,10,0,0,0-20,0v6.025A33.995,33.995,0,0,0,253,224Z" fill="#5cb100" data-original="#000000" style="" class=""/></g></g></g></svg>
